<svg width="640" height="420" viewBox="0 0 640 420" xmlns="http://www.w3.org/2000/svg" role="img" aria-label="Crash game thumbnail">
  <defs>
    <linearGradient id="bg" x1="0" y1="0" x2="1" y2="1">
      <stop offset="0%" stop-color="#0c1225" />
      <stop offset="100%" stop-color="#200c24" />
    </linearGradient>
    <linearGradient id="curve" x1="0" y1="1" x2="1" y2="0">
      <stop offset="0%" stop-color="#ff2566" stop-opacity="0.25" />
      <stop offset="100%" stop-color="#36f3ff" stop-opacity="0.95" />
    </linearGradient>
    <filter id="glow" x="-20%" y="-20%" width="140%" height="140%">
      <feGaussianBlur stdDeviation="4" result="b" />
      <feMerge>
        <feMergeNode in="b" />
        <feMergeNode in="SourceGraphic" />
      </feMerge>
    </filter>
  </defs>
  <rect width="640" height="420" rx="24" fill="url(#bg)" />
  <g opacity="0.15">
    <path d="M0 380L640 40" stroke="#fff" />
    <path d="M0 320L640 -20" stroke="#fff" />
    <path d="M0 260L640 -80" stroke="#fff" />
    <path d="M0 420L640 80" stroke="#fff" />
  </g>
  <path d="M40 360 C140 355, 190 330, 250 260 C300 200, 350 120, 430 78 C480 52, 540 46, 600 54" fill="none" stroke="url(#curve)" stroke-width="12" stroke-linecap="round" filter="url(#glow)" />
  <path d="M40 360 C140 355, 190 330, 250 260 C300 200, 350 120, 430 78 C480 52, 540 46, 600 54 L600 420 L40 420 Z" fill="#ff2360" opacity="0.18" />
  <g transform="translate(465 46) rotate(-18)">
    <path d="M4 24l18-4 14-14c1-1 2-1 3 0l2 2c1 1 1 2 0 3l-14 14-4 18-4-10-10-4z" fill="#ff5f7d" />
  </g>
  <text x="36" y="86" fill="#f2f6ff" font-size="48" font-weight="800" font-family="Arial, Helvetica, sans-serif">AVIATOR</text>
  <text x="36" y="136" fill="#8be6ff" font-size="26" font-weight="700" font-family="Arial, Helvetica, sans-serif">CRASH MODE</text>
  <rect x="36" y="302" width="156" height="58" rx="14" fill="#1ebb0a" />
  <text x="114" y="340" text-anchor="middle" fill="#ecffe8" font-size="30" font-weight="800" font-family="Arial, Helvetica, sans-serif">BET</text>
  <text x="500" y="338" fill="#f7f2ff" font-size="54" font-weight="900" font-family="Arial, Helvetica, sans-serif">7.25x</text>
</svg>
