<svg width="640" height="420" viewBox="0 0 640 420" xmlns="http://www.w3.org/2000/svg" role="img" aria-label="Mines game thumbnail">
  <defs>
    <linearGradient id="bg" x1="0" y1="0" x2="1" y2="1">
      <stop offset="0%" stop-color="#130f1f" />
      <stop offset="100%" stop-color="#090d18" />
    </linearGradient>
    <linearGradient id="tile" x1="0" y1="0" x2="1" y2="1">
      <stop offset="0%" stop-color="#44215e" />
      <stop offset="100%" stop-color="#1e142d" />
    </linearGradient>
  </defs>
  <rect width="640" height="420" rx="24" fill="url(#bg)" />
  <text x="34" y="72" fill="#ffe0c3" font-size="48" font-weight="900" font-family="Arial, Helvetica, sans-serif">MINES</text>
  <text x="34" y="112" fill="#fca264" font-size="22" font-weight="700" font-family="Arial, Helvetica, sans-serif">SAFE GEMS VS BOMBS</text>
  <g transform="translate(320 76)">
    <rect x="0" y="0" width="286" height="286" rx="18" fill="rgba(252,162,100,0.09)" stroke="#fca264" stroke-width="3"/>
    <g transform="translate(16 16)">
      <rect x="0" y="0" width="54" height="54" rx="10" fill="url(#tile)" stroke="#fca264" />
      <rect x="62" y="0" width="54" height="54" rx="10" fill="url(#tile)" stroke="#fca264" />
      <rect x="124" y="0" width="54" height="54" rx="10" fill="url(#tile)" stroke="#fca264" />
      <rect x="186" y="0" width="54" height="54" rx="10" fill="url(#tile)" stroke="#fca264" />
      <rect x="0" y="62" width="54" height="54" rx="10" fill="url(#tile)" stroke="#fca264" />
      <rect x="62" y="62" width="54" height="54" rx="10" fill="url(#tile)" stroke="#fca264" />
      <rect x="124" y="62" width="54" height="54" rx="10" fill="url(#tile)" stroke="#fca264" />
      <rect x="186" y="62" width="54" height="54" rx="10" fill="url(#tile)" stroke="#fca264" />
      <rect x="0" y="124" width="54" height="54" rx="10" fill="url(#tile)" stroke="#fca264" />
      <rect x="62" y="124" width="54" height="54" rx="10" fill="url(#tile)" stroke="#fca264" />
      <rect x="124" y="124" width="54" height="54" rx="10" fill="url(#tile)" stroke="#fca264" />
      <rect x="186" y="124" width="54" height="54" rx="10" fill="url(#tile)" stroke="#fca264" />
      <text x="27" y="36" text-anchor="middle" fill="#9be7ff" font-size="28">=Ž</text>
      <text x="89" y="160" text-anchor="middle" fill="#ff8e8e" font-size="28">=£</text>
      <text x="151" y="98" text-anchor="middle" fill="#9be7ff" font-size="28">=Ž</text>
    </g>
  </g>
</svg>
