<svg xmlns="http://www.w3.org/2000/svg" viewBox="0 0 360 220" role="img" aria-labelledby="title desc">
  <title id="title">Premium Slots Thumbnail</title>
  <desc id="desc">Hot slot machine card for home page game list</desc>
  <defs>
    <linearGradient id="bg" x1="0" y1="0" x2="1" y2="1">
      <stop offset="0%" stop-color="#2b102f" />
      <stop offset="50%" stop-color="#4e1f33" />
      <stop offset="100%" stop-color="#1a0d1f" />
    </linearGradient>
    <linearGradient id="gold" x1="0" y1="0" x2="0" y2="1">
      <stop offset="0%" stop-color="#ffd580" />
      <stop offset="100%" stop-color="#fca264" />
    </linearGradient>
  </defs>

  <rect width="360" height="220" rx="18" fill="url(#bg)" />

  <g opacity="0.25">
    <circle cx="76" cy="46" r="8" fill="#ffd580" />
    <circle cx="301" cy="38" r="6" fill="#ffd580" />
    <circle cx="320" cy="176" r="10" fill="#ffd580" />
  </g>

  <text x="22" y="38" fill="#ffd580" font-family="Arial, Helvetica, sans-serif" font-size="24" font-weight="900">
    PREMIUM SLOTS
  </text>
  <text x="22" y="61" fill="#fbe7c3" font-family="Arial, Helvetica, sans-serif" font-size="14" font-weight="700">
    HOT " HIGH VOLTAGE REELS
  </text>

  <g transform="translate(34 88)">
    <rect width="292" height="96" rx="14" fill="#1a1226" stroke="#fca264" stroke-width="3" />
    <rect x="16" y="16" width="50" height="64" rx="8" fill="#fff6ec" />
    <rect x="74" y="16" width="50" height="64" rx="8" fill="#fff6ec" />
    <rect x="132" y="16" width="50" height="64" rx="8" fill="#fff6ec" />
    <rect x="190" y="16" width="50" height="64" rx="8" fill="#fff6ec" />
    <rect x="248" y="16" width="28" height="64" rx="8" fill="#fff6ec" />

    <text x="40" y="57" text-anchor="middle" fill="#2a0f1f" font-family="Arial, Helvetica, sans-serif" font-size="28" font-weight="900">A</text>
    <text x="99" y="57" text-anchor="middle" fill="#2a0f1f" font-family="Arial, Helvetica, sans-serif" font-size="28" font-weight="900">K</text>
    <text x="157" y="57" text-anchor="middle" fill="#2a0f1f" font-family="Arial, Helvetica, sans-serif" font-size="28" font-weight="900">Q</text>
    <text x="215" y="57" text-anchor="middle" fill="#2a0f1f" font-family="Arial, Helvetica, sans-serif" font-size="28" font-weight="900">J</text>
    <text x="262" y="57" text-anchor="middle" fill="#2a0f1f" font-family="Arial, Helvetica, sans-serif" font-size="26" font-weight="900">`</text>
  </g>

  <rect x="238" y="16" width="100" height="30" rx="15" fill="url(#gold)" />
  <text x="288" y="36" text-anchor="middle" fill="#2a1709" font-family="Arial, Helvetica, sans-serif" font-size="14" font-weight="900">TAP TO BET</text>
</svg>
